Coordinates
version=1
nRows=22
nColumns=24
inDegrees=yes

Units are S.I. units (second, meters, Newtons, ...)
Angles are in degrees.

endheader
time	pelvis_tilt	pelvis_list	pelvis_rotation	pelvis_tx	pelvis_ty	pelvis_tz	hip_flexion_r	hip_adduction_r	hip_rotation_r	knee_angle_r	ankle_angle_r	subtalar_angle_r	mtp_angle_r	hip_flexion_l	hip_adduction_l	hip_rotation_l	knee_angle_l	ankle_angle_l	subtalar_angle_l	mtp_angle_l	lumbar_extension	lumbar_bending	lumbar_rotation
      3.93000000	    -11.66503649	     -2.98356290	     -4.83168714	     -1.27906039	     -0.01785076	     -0.26099671	      7.62284970	      7.82921256	      3.99017509	    -10.96291785	      5.39830251	    -12.76885434	     10.04638694	     39.36911513	     -6.92061234	     -5.31636248	    -53.93600908	     -5.52695243	     -7.66934384	      9.47335844	      5.68413914	      2.31065889	      2.91677488
      3.93500000	    -11.68195335	     -2.84429777	     -5.06179674	     -1.27220554	     -0.01843724	     -0.26090255	      7.06815909	      7.66925240	      4.20919685	    -10.71656918	      5.63321497	    -12.71774681	     10.07127077	     39.75429394	     -6.93108123	     -5.43923480	    -52.55287774	     -5.44612174	     -7.37511013	      9.23890117	      5.64563588	      2.16990679	      3.14959154
      3.94000000	    -11.68205899	     -2.70736956	     -5.29455990	     -1.26537750	     -0.01907434	     -0.26090102	      6.49046371	      7.49929568	      4.43725346	    -10.45487201	      5.89784575	    -12.67067974	     10.10225588	     40.09123309	     -6.93986687	     -5.55755729	    -51.11732745	     -5.35781802	     -7.05148960	      8.93280221	      5.57755868	      2.04899561	      3.42499709
      3.94500000	    -11.78961315	     -2.60764937	     -5.43055141	     -1.25853466	     -0.01989995	     -0.26101911	      6.03443759	      7.36513984	      4.55019515	    -10.19925359	      6.11704139	    -12.67733805	     10.12404777	     40.54342295	     -6.92060115	     -5.53707812	    -49.63149630	     -5.33562680	     -6.70178004	      8.80896053	      5.62944183	      1.95886338	      3.56201222
      3.95000000	    -11.73675983	     -2.43558158	     -5.74682280	     -1.25176583	     -0.02049655	     -0.26085669	      5.41870545	      7.15613565	      4.82140658	     -9.95975288	      6.38187685	    -12.54894855	     10.17080505	     40.72315000	     -6.98876563	     -5.79610876	    -48.05089742	     -5.24026353	     -6.25215109	      8.45352365	      5.49765900	      1.79190283	      3.91352170
      3.95500000	    -11.74466213	     -2.28918157	     -5.94827452	     -1.24493623	     -0.02123408	     -0.26086071	      4.85700442	      6.95996164	      4.98406264	     -9.69893812	      6.62553120	    -12.47597050	     10.20411568	     40.96348082	     -7.00318447	     -5.93588506	    -46.43121873	     -5.13840268	     -5.77186107	      8.02448643	      5.44315571	      1.64441137	      4.15318099
      3.96000000	    -11.77051020	     -2.15785376	     -6.08202563	     -1.23811071	     -0.02203684	     -0.26100839	      4.32230604	      6.76619628	      5.01778157	     -9.44449985	      6.86620983	    -12.37617783	     10.23554618	     41.22326976	     -6.97533884	     -5.99708965	    -44.86133793	     -4.57899528	     -5.01218378	      5.69698842	      5.40186073	      1.50845548	      4.32492292
      3.96500000	    -11.87046370	     -2.03035516	     -6.28712324	     -1.23134691	     -0.02294695	     -0.26101655	      3.87850927	      6.59571596	      5.15163421	     -9.20639891	      7.08662156	    -12.30458974	     10.27357384	     41.50367294	     -7.03701481	     -6.15247377	    -43.14071144	     -4.55191040	     -4.54977949	      5.60480472	      5.43554702	      1.39259458	      4.54535664
      3.97000000	    -11.92361048	     -1.88910942	     -6.46815360	     -1.22457249	     -0.02381576	     -0.26103635	      3.38773044	      6.39901297	      5.22931897	     -8.96999103	      7.30921360	    -12.19733248	     10.31361273	     41.68522628	     -7.07075231	     -6.30898604	    -41.35726600	     -4.47238239	     -4.07056448	      5.44614372	      5.41940710	      1.24502586	      4.76643765
      3.97500000	    -11.97918555	     -1.74307494	     -6.63041502	     -1.21780450	     -0.02471269	     -0.26106099	      2.90553109	      6.19378897	      5.25119186	     -8.73865665	      7.53855300	    -12.06162046	     10.35611147	     41.83499890	     -7.09426493	     -6.47222933	    -39.53472842	     -4.36395523	     -3.60774368	      5.21361871	      5.40657861	      1.08468146	      4.97050513
      3.98000000	    -12.00542923	     -1.58439426	     -6.79603213	     -1.21107848	     -0.02558464	     -0.26113112	      2.41654926	      5.96554259	      5.20186151	     -8.54178597	      7.79042791	    -11.86428894	     10.40816392	     41.90931499	     -7.10121050	     -6.65246243	    -37.67088780	     -4.19630717	     -3.18840059	      4.82827636	      5.35271439	      0.91759399	      5.20871578
      3.98500000	    -12.05930499	     -1.42723940	     -6.93126286	     -1.20431173	     -0.02651261	     -0.26119213	      1.95237367	      5.73917768	      5.09399828	     -8.33717906	      8.04697235	    -11.62583393	     10.46202865	     41.99170934	     -7.10361898	     -6.84617692	    -35.80218292	     -4.00012497	     -2.79199172	      4.32378884	      5.33769375	      0.74123964	      5.39273483
      3.99000000	    -12.12185692	     -1.27014912	     -7.05141267	     -1.19753230	     -0.02746980	     -0.26126100	      1.50501394	      5.51239091	      4.92363774	     -8.14496346	      8.30692936	    -11.35058521	     10.51683443	     42.05915392	     -7.09879718	     -7.04635369	    -33.93345404	     -3.77467951	     -2.45361527	      3.71840444	      5.33408888	      0.56038194	      5.56059510
      3.99500000	    -12.17865407	     -1.11102666	     -7.15708619	     -1.19075611	     -0.02842743	     -0.26134394	      1.06461668	      5.28140044	      4.66945718	     -7.97250858	      8.57408177	    -11.01909588	     10.57582976	     42.09916551	     -7.08087256	     -7.24789813	    -32.07428056	     -3.52519501	     -2.17848820	      2.96716361	      5.32035495	      0.37353149	      5.72263261
      4.00000000	    -12.23662700	     -0.95296820	     -7.25218693	     -1.18396574	     -0.02939875	     -0.26143483	      0.63852397	      5.05233250	      4.33946561	     -7.82226619	      8.84174249	    -10.64875897	     10.64005493	     42.12596409	     -7.05538402	     -7.44745187	    -30.24815350	     -3.24978235	     -1.96760221	      2.07027645	      5.30891005	      0.18211175	      5.87339135
      4.00500000	    -12.39261969	     -0.85371707	     -7.25773728	     -1.17709100	     -0.03053449	     -0.26168421	      0.30370740	      4.89497684	      3.87445449	     -7.66215444	      9.05411930	    -10.29032485	     10.73466095	     42.31020370	     -7.01437699	     -7.48955397	    -28.63289959	     -2.37956336	     -1.54383345	     -1.32959002	      5.40735008	      0.05809788	      5.90417049
      4.01000000	    -12.43483849	     -0.69545147	     -7.40580332	     -1.17028117	     -0.03151137	     -0.26163638	     -0.12097788	      4.67915804	      3.61599126	     -7.54730348	      9.23726067	    -10.02506753	     10.78989485	     42.29377970	     -7.04546207	     -7.82028489	    -26.89491935	     -2.23230630	     -1.49147844	     -1.56345953	      5.38139643	     -0.13875995	      6.11226398
      4.01500000	    -12.44040257	     -0.55756944	     -7.42812003	     -1.16333076	     -0.03248130	     -0.26180756	     -0.58531297	      4.46399809	      3.00522725	     -7.44406952	      9.48817225	     -9.50544960	     10.91965960	     42.25846559	     -6.98571842	     -8.02316403	    -25.25383017	     -2.01876272	     -1.47894410	     -2.26885536	      5.32527475	     -0.33139834	      6.16673154
      4.02000000	    -12.45623802	     -0.39177505	     -7.50619105	     -1.15632498	     -0.03345074	     -0.26193414	     -1.01858450	      4.22192422	      2.48097412	     -7.37607180	      9.70282884	     -9.03758960	     11.08252447	     42.22231701	     -6.93443863	     -8.28500539	    -23.70464983	     -1.75408449	     -1.51602808	     -3.30210812	      5.29416415	     -0.54185667	      6.29374667
      4.02500000	    -12.63058869	     -0.25412437	     -7.63590931	     -1.14931455	     -0.03461161	     -0.26198226	     -1.26577232	      4.05003757	      2.21565105	     -7.34539756	      9.75331638	     -8.93291820	     11.11525143	     42.36893960	     -6.96563665	     -8.56600517	    -22.25042430	     -1.69284382	     -1.65125613	     -3.63410246	      5.43140598	     -0.69525413	      6.45655348
      4.03000000	    -12.65414305	     -0.10564699	     -7.65641618	     -1.14217721	     -0.03560259	     -0.26240506	     -1.65141508	      3.79947433	      1.45628698	     -7.35029217	      9.95367306	     -8.25041518	     11.75958195	     42.38395650	     -6.84306004	     -8.64050360	    -21.03661602	     -0.77760113	     -1.59434463	     -7.77034172	      5.41604960	     -0.87409359	      6.53964493
      4.03500000	    -12.65553720	      0.06857573	     -7.80410209	     -1.13495732	     -0.03655065	     -0.26243097	     -2.07929843	      3.55380134	      1.18615072	     -7.33799493	      9.97706009	     -8.06289191	     11.78564532	     42.32841438	     -6.84640648	     -9.08902200	    -19.78254918	     -0.70099199	     -1.64926390	     -7.95895322	      5.39937825	     -1.09269356	      6.73871661
